<svg width="25" height="16" viewBox="0 0 25 16" fill="none" xmlns="http://www.w3.org/2000/svg">
<path d="M13.4 4C13.4 5.06087 12.9364 6.07828 12.1113 6.82843C11.2861 7.57857 10.167 8 9.00001 8C7.83306 8 6.7139 7.57857 5.88874 6.82843C5.06358 6.07828 4.60001 5.06087 4.60001 4C4.60001 2.93913 5.06358 1.92172 5.88874 1.17157C6.7139 0.421427 7.83306 0 9.00001 0C10.167 0 11.2861 0.421427 12.1113 1.17157C12.9364 1.92172 13.4 2.93913 13.4 4ZM17.8 14V16H0.200012V14C0.200012 11.79 4.13801 10 9.00001 10C13.862 10 17.8 11.79 17.8 14ZM21.65 10.5V12H20V10.5H21.65ZM19.45 5.5H17.8V5C17.8 4.20435 18.1477 3.44129 18.7666 2.87868C19.3854 2.31607 20.2248 2 21.1 2C21.9752 2 22.8146 2.31607 23.4335 2.87868C24.0523 3.44129 24.4 4.20435 24.4 5C24.4 5.97 23.85 6.88 22.981 7.41L22.651 7.6C22.024 8 21.65 8.61 21.65 9.3V9.5H20V9.3C20 8.11 20.66 7 21.749 6.35L22.068 6.16C22.497 5.9 22.75 5.47 22.75 5C22.75 4.60218 22.5762 4.22064 22.2667 3.93934C21.9573 3.65804 21.5376 3.5 21.1 3.5C20.6624 3.5 20.2427 3.65804 19.9333 3.93934C19.6239 4.22064 19.45 4.60218 19.45 5V5.5Z" fill="#7D5353"/>
</svg>
