<svg width="25" height="20" viewBox="0 0 25 20" fill="none" xmlns="http://www.w3.org/2000/svg">
<path d="M22 12V2H2.2V12H22ZM22 0C22.5835 0 23.1431 0.210714 23.5556 0.585786C23.9682 0.960859 24.2 1.46957 24.2 2V14C24.2 14.5304 23.9682 15.0391 23.5556 15.4142C23.1431 15.7893 22.5835 16 22 16H14.3L16.5 19V20H7.7V19L9.9 16H2.2C1.61652 16 1.05695 15.7893 0.644365 15.4142C0.231785 15.0391 0 14.5304 0 14V2C0 0.89 0.979 0 2.2 0H22ZM3.3 3H15.4V8H3.3V3ZM16.5 3H20.9V5H16.5V3ZM20.9 6V11H16.5V6H20.9ZM3.3 9H8.8V11H3.3V9ZM9.9 9H15.4V11H9.9V9Z" fill="#7D5353"/>
</svg>
