<svg width="23" height="16" viewBox="0 0 23 16" fill="none" xmlns="http://www.w3.org/2000/svg">
<path d="M9.00001 0C10.167 0 11.2861 0.421427 12.1113 1.17157C12.9364 1.92172 13.4 2.93913 13.4 4C13.4 5.06087 12.9364 6.07828 12.1113 6.82843C11.2861 7.57857 10.167 8 9.00001 8C7.83306 8 6.7139 7.57857 5.88874 6.82843C5.06358 6.07828 4.60001 5.06087 4.60001 4C4.60001 2.93913 5.06358 1.92172 5.88874 1.17157C6.7139 0.421427 7.83306 0 9.00001 0ZM9.00001 10C13.862 10 17.8 11.79 17.8 14V16H0.200012V14C0.200012 11.79 4.13801 10 9.00001 10ZM20 8V3H22.2V9H20V8ZM20 13V11H22.2V13H20Z" fill="#7D5353"/>
</svg>
