<svg width="22" height="18" viewBox="0 0 22 18" fill="none" xmlns="http://www.w3.org/2000/svg">
<path d="M4.60001 18H0.200012V16H4.60001V15H2.40001C1.81654 15 1.25696 14.7893 0.844377 14.4142C0.431797 14.0391 0.200012 13.5304 0.200012 13V12C0.200012 10.9 1.19001 10 2.40001 10H4.60001C5.18349 10 5.74307 10.2107 6.15565 10.5858C6.56823 10.9609 6.80001 11.4696 6.80001 12V16C6.80001 17.11 5.82101 18 4.60001 18ZM4.60001 12H2.40001V13H4.60001V12ZM2.40001 0H4.60001C5.18349 0 5.74307 0.210714 6.15565 0.585786C6.56823 0.960859 6.80001 1.46957 6.80001 2V6C6.80001 7.11 5.82101 8 4.60001 8H2.40001C1.81654 8 1.25696 7.78929 0.844377 7.41421C0.431797 7.03914 0.200012 6.53043 0.200012 6V2C0.200012 0.9 1.19001 0 2.40001 0ZM2.40001 6H4.60001V2H2.40001V6ZM10.1 2H21.1V4H10.1V2ZM10.1 16V14H21.1V16H10.1ZM10.1 8H21.1V10H10.1V8Z" fill="#7D5353"/>
</svg>
