<svg width="22" height="17" viewBox="0 0 22 17" fill="none" xmlns="http://www.w3.org/2000/svg">
<path d="M20.11 8.5L21.65 9.91L14.467 16.5L10.65 13L12.19 11.59L14.467 13.67L20.11 8.5ZM9.00001 0C10.167 0 11.2861 0.421427 12.1113 1.17157C12.9364 1.92172 13.4 2.93913 13.4 4C13.4 5.06087 12.9364 6.07828 12.1113 6.82843C11.2861 7.57857 10.167 8 9.00001 8C7.83306 8 6.7139 7.57857 5.88874 6.82843C5.06358 6.07828 4.60001 5.06087 4.60001 4C4.60001 2.93913 5.06358 1.92172 5.88874 1.17157C6.7139 0.421427 7.83306 0 9.00001 0ZM9.00001 2C8.41654 2 7.85696 2.21071 7.44438 2.58579C7.0318 2.96086 6.80001 3.46957 6.80001 4C6.80001 4.53043 7.0318 5.03914 7.44438 5.41421C7.85696 5.78929 8.41654 6 9.00001 6C9.58349 6 10.1431 5.78929 10.5556 5.41421C10.9682 5.03914 11.2 4.53043 11.2 4C11.2 3.46957 10.9682 2.96086 10.5556 2.58579C10.1431 2.21071 9.58349 2 9.00001 2ZM9.00001 9C9.74801 9 10.65 9.09 11.651 9.26L9.81401 10.93L9.00001 10.9C5.73301 10.9 2.29001 12.36 2.29001 13V14.1H9.11001L11.2 16H0.200012V13C0.200012 10.34 6.06301 9 9.00001 9Z" fill="#7D5353"/>
</svg>
