<svg width="23" height="20" viewBox="0 0 23 20" fill="none" xmlns="http://www.w3.org/2000/svg">
<path d="M11.3 17.2C8.54999 17.2 6.11899 15.92 4.69999 14C4.73299 12 9.09999 10.9 11.3 10.9C13.5 10.9 17.867 12 17.9 14C17.1728 14.9844 16.1904 15.7912 15.0395 16.3492C13.8886 16.9072 12.6044 17.1994 11.3 17.2ZM11.3 3C12.1752 3 13.0146 3.31607 13.6334 3.87868C14.2523 4.44129 14.6 5.20435 14.6 6C14.6 6.79565 14.2523 7.55871 13.6334 8.12132C13.0146 8.68393 12.1752 9 11.3 9C10.4248 9 9.58541 8.68393 8.96654 8.12132C8.34766 7.55871 7.99999 6.79565 7.99999 6C7.99999 5.20435 8.34766 4.44129 8.96654 3.87868C9.58541 3.31607 10.4248 3 11.3 3ZM11.3 0C9.85545 0 8.42505 0.258658 7.09047 0.761205C5.75589 1.26375 4.54326 2.00035 3.52181 2.92893C1.45891 4.8043 0.299988 7.34784 0.299988 10C0.299988 12.6522 1.45891 15.1957 3.52181 17.0711C4.54326 17.9997 5.75589 18.7362 7.09047 19.2388C8.42505 19.7413 9.85545 20 11.3 20C14.2174 20 17.0153 18.9464 19.0782 17.0711C21.1411 15.1957 22.3 12.6522 22.3 10C22.3 4.47 17.35 0 11.3 0Z" fill="#7D5353"/>
</svg>
